{
  "asset": {
    "version": "2.0",
    "generator": "Sketchup glTF Exporter v1.2.6 by Centaur"
  },
  "scene": 0,
  "scenes": [
    {
      "nodes": [
        0
      ]
    }
  ],
  "samplers": [
    {
    }
  ],
  "nodes": [
    {
      "name": "root",
      "children": [
        1
      ],
      "mesh": 1
    },
    {
      "name": "Stacy",
      "mesh": 0
    }
  ],
  "materials": [
    {
      "pbrMetallicRoughness": {
        "baseColorFactor": [
          0.6524,
          0.4647,
          0.2674,
          1.0
        ],
        "metallicFactor": 0.1,
        "roughnessFactor": 0.9
      },
      "name": "Stacy_Skin",
      "doubleSided": true
    },
    {
      "pbrMetallicRoughness": {
        "baseColorFactor": [
          0.1332,
          0.1332,
          0.1332,
          1.0
        ],
        "metallicFactor": 0.1,
        "roughnessFactor": 0.9
      },
      "name": "Stacy_Shirt",
      "doubleSided": true
    },
    {
      "pbrMetallicRoughness": {
        "baseColorFactor": [
          0.7969,
          0.0199,
          0.021,
          1.0
        ],
        "metallicFactor": 0.1,
        "roughnessFactor": 0.9
      },
      "name": "Stacy_Shoe",
      "doubleSided": true
    },
    {
      "pbrMetallicRoughness": {
        "baseColorFactor": [
          0.7667,
          0.7667,
          0.7667,
          1.0
        ],
        "metallicFactor": 0.1,
        "roughnessFactor": 0.9
      },
      "name": "Stacy_Shoe_Laces_Sole",
      "doubleSided": true
    },
    {
      "pbrMetallicRoughness": {
        "baseColorFactor": [
          0.0135,
          0.0033,
          0.0004,
          1.0
        ],
        "metallicFactor": 0.1,
        "roughnessFactor": 0.9
      },
      "name": "Stacy_Hair",
      "doubleSided": true
    },
    {
      "pbrMetallicRoughness": {
        "baseColorFactor": [
          0.017,
          0.0385,
          0.1113,
          1.0
        ],
        "metallicFactor": 0.1,
        "roughnessFactor": 0.9
      },
      "name": "Stacy_Pants",
      "doubleSided": true
    },
    {
      "pbrMetallicRoughness": {
        "baseColorFactor": [
          0.2176,
          0.2176,
          0.2176,
          1.0
        ],
        "metallicFactor": 0.1,
        "roughnessFactor": 0.9
      },
      "name": "default material",
      "doubleSided": true
    },
    {
      "pbrMetallicRoughness": {
        "baseColorTexture": {
          "index": 0
        },
        "metallicFactor": 0.1,
        "roughnessFactor": 0.9
      },
      "name": "[Plastic Red]2"
    },
    {
      "pbrMetallicRoughness": {
        "baseColorTexture": {
          "index": 1
        },
        "metallicFactor": 0.1,
        "roughnessFactor": 0.9
      },
      "name": "Пластик, красный"
    },
    {
      "pbrMetallicRoughness": {
        "baseColorTexture": {
          "index": 2
        },
        "metallicFactor": 0.1,
        "roughnessFactor": 0.9
      },
      "name": "[Plastic Red]1"
    }
  ],
  "images": [
    {
      "bufferView": 0,
      "mimeType": "image/jpeg"
    },
    {
      "bufferView": 1,
      "mimeType": "image/jpeg"
    },
    {
      "bufferView": 2,
      "mimeType": "image/jpeg"
    }
  ],
  "textures": [
    {
      "source": 0,
      "sampler": 0
    },
    {
      "source": 1,
      "sampler": 0
    },
    {
      "source": 2,
      "sampler": 0
    }
  ],
  "meshes": [
    {
      "primitives": [
        {
          "attributes": {
            "POSITION": 0,
            "NORMAL": 1
          },
          "indices": 5,
          "mode": 4,
          "material": 0
        },
        {
          "attributes": {
            "POSITION": 0,
            "NORMAL": 1
          },
          "indices": 6,
          "mode": 4,
          "material": 1
        },
        {
          "attributes": {
            "POSITION": 0,
            "NORMAL": 1
          },
          "indices": 7,
          "mode": 4,
          "material": 2
        },
        {
          "attributes": {
            "POSITION": 0,
            "NORMAL": 1
          },
          "indices": 8,
          "mode": 4,
          "material": 3
        },
        {
          "attributes": {
            "POSITION": 0,
            "NORMAL": 1
          },
          "indices": 9,
          "mode": 4,
          "material": 4
        },
        {
          "attributes": {
            "POSITION": 0,
            "NORMAL": 1
          },
          "indices": 10,
          "mode": 4,
          "material": 5
        }
      ]
    },
    {
      "primitives": [
        {
          "attributes": {
            "POSITION": 0,
            "NORMAL": 1
          },
          "indices": 11,
          "mode": 4,
          "material": 6
        },
        {
          "attributes": {
            "POSITION": 2,
            "NORMAL": 3,
            "TEXCOORD_0": 4
          },
          "indices": 12,
          "mode": 4,
          "material": 7
        },
        {
          "attributes": {
            "POSITION": 2,
            "NORMAL": 3,
            "TEXCOORD_0": 4
          },
          "indices": 13,
          "mode": 4,
          "material": 8
        },
        {
          "attributes": {
            "POSITION": 2,
            "NORMAL": 3,
            "TEXCOORD_0": 4
          },
          "indices": 14,
          "mode": 4,
          "material": 9
        }
      ]
    }
  ],
  "accessors": [
    {
      "bufferView": 3,
      "componentType": 5126,
      "count": 1752,
      "type": "VEC3",
      "min": [
        -1.4999999999999996,
        -1.2246467991473532e-16,
        -2.0
      ],
      "max": [
        2.0000000000000004,
        1.7500000000000002,
        1.5000000000000004
      ]
    },
    {
      "bufferView": 4,
      "componentType": 5126,
      "count": 1752,
      "type": "VEC3",
      "min": [
        -1.0,
        -1.0,
        -1.0
      ],
      "max": [
        1.0,
        4.6623483174402056e-14,
        1.0
      ]
    },
    {
      "bufferView": 5,
      "componentType": 5126,
      "count": 110,
      "type": "VEC3",
      "min": [
        -1.4999999999999996,
        -1.2246467991473532e-16,
        -2.0
      ],
      "max": [
        2.0000000000000004,
        2.0,
        1.5000000000000004
      ]
    },
    {
      "bufferView": 6,
      "componentType": 5126,
      "count": 110,
      "type": "VEC3",
      "min": [
        -1.0,
        -6.123233995736788e-17,
        -1.0
      ],
      "max": [
        1.0,
        1.0,
        1.0
      ]
    },
    {
      "bufferView": 7,
      "componentType": 5126,
      "count": 110,
      "type": "VEC2",
      "min": [
        -7.228783902012239,
        -5.561679790026247
      ],
      "max": [
        7.228783902012238,
        5.921259842519685
      ]
    },
    {
      "bufferView": 8,
      "componentType": 5123,
      "count": 900,
      "type": "SCALAR"
    },
    {
      "bufferView": 8,
      "componentType": 5123,
      "count": 1536,
      "type": "SCALAR",
      "byteOffset": 1800
    },
    {
      "bufferView": 8,
      "componentType": 5123,
      "count": 585,
      "type": "SCALAR",
      "byteOffset": 4872
    },
    {
      "bufferView": 8,
      "componentType": 5123,
      "count": 921,
      "type": "SCALAR",
      "byteOffset": 6042
    },
    {
      "bufferView": 8,
      "componentType": 5123,
      "count": 363,
      "type": "SCALAR",
      "byteOffset": 7884
    },
    {
      "bufferView": 8,
      "componentType": 5123,
      "count": 489,
      "type": "SCALAR",
      "byteOffset": 8610
    },
    {
      "bufferView": 8,
      "componentType": 5123,
      "count": 150,
      "type": "SCALAR",
      "byteOffset": 9588
    },
    {
      "bufferView": 9,
      "componentType": 5121,
      "count": 249,
      "type": "SCALAR"
    },
    {
      "bufferView": 9,
      "componentType": 5121,
      "count": 12,
      "type": "SCALAR",
      "byteOffset": 249
    },
    {
      "bufferView": 9,
      "componentType": 5121,
      "count": 15,
      "type": "SCALAR",
      "byteOffset": 261
    }
  ],
  "bufferViews": [
    {
      "buffer": 0,
      "byteLength": 2572
    },
    {
      "buffer": 0,
      "byteOffset": 2572,
      "byteLength": 3539
    },
    {
      "buffer": 0,
      "byteOffset": 6111,
      "byteLength": 3991
    },
    {
      "buffer": 0,
      "byteOffset": 10104,
      "byteLength": 21024,
      "target": 34962,
      "byteStride": 12
    },
    {
      "buffer": 0,
      "byteOffset": 31128,
      "byteLength": 21024,
      "target": 34962,
      "byteStride": 12
    },
    {
      "buffer": 0,
      "byteOffset": 52152,
      "byteLength": 1320,
      "target": 34962,
      "byteStride": 12
    },
    {
      "buffer": 0,
      "byteOffset": 53472,
      "byteLength": 1320,
      "target": 34962,
      "byteStride": 12
    },
    {
      "buffer": 0,
      "byteOffset": 54792,
      "byteLength": 880,
      "target": 34962,
      "byteStride": 8
    },
    {
      "buffer": 0,
      "byteOffset": 55672,
      "byteLength": 9888,
      "target": 34963
    },
    {
      "buffer": 0,
      "byteOffset": 65560,
      "byteLength": 276,
      "target": 34963
    }
  ],
  "buffers": [
    {
      "uri": "data:application/octet-stream;base64,",
      "byteLength": 65836
    }
  ]
}