{
  "asset": {
    "version": "2.0",
    "generator": "Sketchup glTF Exporter v1.2.6 by Centaur"
  },
  "scene": 0,
  "scenes": [
    {
      "nodes": [
        0
      ]
    }
  ],
  "samplers": [
    {
    }
  ],
  "nodes": [
    {
      "name": "root",
      "children": [
        1
      ]
    },
    {
      "mesh": 0
    }
  ],
  "materials": [
    {
      "pbrMetallicRoughness": {
        "baseColorTexture": {
          "index": 0
        },
        "metallicFactor": 0.1,
        "roughnessFactor": 0.9
      },
      "name": "[Plastic Red]2"
    },
    {
      "pbrMetallicRoughness": {
        "baseColorTexture": {
          "index": 1
        },
        "metallicFactor": 0.1,
        "roughnessFactor": 0.9
      },
      "name": "Пластик, красный"
    },
    {
      "pbrMetallicRoughness": {
        "baseColorTexture": {
          "index": 2
        },
        "metallicFactor": 0.1,
        "roughnessFactor": 0.9
      },
      "name": "[Plastic Red]3"
    },
    {
      "pbrMetallicRoughness": {
        "baseColorFactor": [
          0.2176,
          0.2176,
          0.2176,
          1.0
        ],
        "metallicFactor": 0.1,
        "roughnessFactor": 0.9
      },
      "name": "default material",
      "doubleSided": true
    },
    {
      "pbrMetallicRoughness": {
        "baseColorTexture": {
          "index": 3
        },
        "metallicFactor": 0.1,
        "roughnessFactor": 0.9
      },
      "name": "[Plastic Red]1"
    }
  ],
  "images": [
    {
      "bufferView": 0,
      "mimeType": "image/jpeg"
    },
    {
      "bufferView": 1,
      "mimeType": "image/jpeg"
    },
    {
      "bufferView": 2,
      "mimeType": "image/jpeg"
    },
    {
      "bufferView": 3,
      "mimeType": "image/jpeg"
    }
  ],
  "textures": [
    {
      "source": 0,
      "sampler": 0
    },
    {
      "source": 1,
      "sampler": 0
    },
    {
      "source": 2,
      "sampler": 0
    },
    {
      "source": 3,
      "sampler": 0
    }
  ],
  "meshes": [
    {
      "primitives": [
        {
          "attributes": {
            "POSITION": 2,
            "NORMAL": 3,
            "TEXCOORD_0": 4
          },
          "indices": 5,
          "mode": 4,
          "material": 0
        },
        {
          "attributes": {
            "POSITION": 2,
            "NORMAL": 3,
            "TEXCOORD_0": 4
          },
          "indices": 6,
          "mode": 4,
          "material": 1
        },
        {
          "attributes": {
            "POSITION": 2,
            "NORMAL": 3,
            "TEXCOORD_0": 4
          },
          "indices": 7,
          "mode": 4,
          "material": 2
        },
        {
          "attributes": {
            "POSITION": 0,
            "NORMAL": 1
          },
          "indices": 8,
          "mode": 4,
          "material": 3
        },
        {
          "attributes": {
            "POSITION": 2,
            "NORMAL": 3,
            "TEXCOORD_0": 4
          },
          "indices": 9,
          "mode": 4,
          "material": 4
        }
      ]
    }
  ],
  "accessors": [
    {
      "bufferView": 4,
      "componentType": 5126,
      "count": 13,
      "type": "VEC3",
      "min": [
        -0.2750000000000001,
        0.27999999999999964,
        -0.12500000000000006
      ],
      "max": [
        0.12500000000000006,
        0.29999999999999966,
        0.275
      ]
    },
    {
      "bufferView": 5,
      "componentType": 5126,
      "count": 13,
      "type": "VEC3",
      "min": [
        -7.49879891330929e-33,
        -1.0,
        -1.0
      ],
      "max": [
        1.0,
        1.066754253061791e-15,
        1.8853003017851279e-16
      ]
    },
    {
      "bufferView": 6,
      "componentType": 5126,
      "count": 60,
      "type": "VEC3",
      "min": [
        -0.2750000000000001,
        -0.10000000000000041,
        -0.425
      ],
      "max": [
        0.425,
        0.29999999999999966,
        0.27500000000000013
      ]
    },
    {
      "bufferView": 7,
      "componentType": 5126,
      "count": 60,
      "type": "VEC3",
      "min": [
        -1.0,
        -1.0,
        -1.0
      ],
      "max": [
        1.0,
        1.0,
        1.0
      ]
    },
    {
      "bufferView": 8,
      "componentType": 5126,
      "count": 60,
      "type": "VEC2",
      "min": [
        -0.9035979877515297,
        0.17979002624671914
      ],
      "max": [
        0.9035979877515297,
        1.3280839895013123
      ]
    },
    {
      "bufferView": 10,
      "componentType": 5121,
      "count": 51,
      "type": "SCALAR"
    },
    {
      "bufferView": 10,
      "componentType": 5121,
      "count": 12,
      "type": "SCALAR",
      "byteOffset": 51
    },
    {
      "bufferView": 10,
      "componentType": 5121,
      "count": 42,
      "type": "SCALAR",
      "byteOffset": 63
    },
    {
      "bufferView": 9,
      "componentType": 5121,
      "count": 21,
      "type": "SCALAR"
    },
    {
      "bufferView": 10,
      "componentType": 5121,
      "count": 15,
      "type": "SCALAR",
      "byteOffset": 105
    }
  ],
  "bufferViews": [
    {
      "buffer": 0,
      "byteLength": 2572
    },
    {
      "buffer": 0,
      "byteOffset": 2572,
      "byteLength": 3594
    },
    {
      "buffer": 0,
      "byteOffset": 6166,
      "byteLength": 4095
    },
    {
      "buffer": 0,
      "byteOffset": 10261,
      "byteLength": 4270
    },
    {
      "buffer": 0,
      "byteOffset": 14532,
      "byteLength": 156,
      "target": 34962,
      "byteStride": 12
    },
    {
      "buffer": 0,
      "byteOffset": 14688,
      "byteLength": 156,
      "target": 34962,
      "byteStride": 12
    },
    {
      "buffer": 0,
      "byteOffset": 14844,
      "byteLength": 720,
      "target": 34962,
      "byteStride": 12
    },
    {
      "buffer": 0,
      "byteOffset": 15564,
      "byteLength": 720,
      "target": 34962,
      "byteStride": 12
    },
    {
      "buffer": 0,
      "byteOffset": 16288,
      "byteLength": 480,
      "target": 34962,
      "byteStride": 8
    },
    {
      "buffer": 0,
      "byteOffset": 16768,
      "byteLength": 21,
      "target": 34963
    },
    {
      "buffer": 0,
      "byteOffset": 16789,
      "byteLength": 120,
      "target": 34963
    }
  ],
  "buffers": [
    {
      "uri": "data:application/octet-stream;base64,",
      "byteLength": 16909
    }
  ]
}