{
  "asset": {
    "version": "2.0",
    "generator": "Sketchup glTF Exporter v1.2.6 by Centaur"
  },
  "scene": 0,
  "scenes": [
    {
      "nodes": [
        0
      ]
    }
  ],
  "samplers": [
    {
    }
  ],
  "nodes": [
    {
      "name": "root",
      "mesh": 0
    }
  ],
  "materials": [
    {
      "pbrMetallicRoughness": {
        "baseColorTexture": {
          "index": 0
        },
        "metallicFactor": 0.1,
        "roughnessFactor": 0.9
      },
      "name": "[Plastic Red]6"
    },
    {
      "pbrMetallicRoughness": {
        "baseColorTexture": {
          "index": 1
        },
        "metallicFactor": 0.1,
        "roughnessFactor": 0.9
      },
      "name": "[Plastic Red]1"
    },
    {
      "pbrMetallicRoughness": {
        "baseColorTexture": {
          "index": 2
        },
        "metallicFactor": 0.1,
        "roughnessFactor": 0.9
      },
      "name": "[Plastic Red]2"
    },
    {
      "pbrMetallicRoughness": {
        "baseColorTexture": {
          "index": 3
        },
        "metallicFactor": 0.1,
        "roughnessFactor": 0.9
      },
      "name": "[Plastic Red]3"
    },
    {
      "pbrMetallicRoughness": {
        "baseColorTexture": {
          "index": 4
        },
        "metallicFactor": 0.1,
        "roughnessFactor": 0.9
      },
      "name": "[Plastic Red]5"
    },
    {
      "pbrMetallicRoughness": {
        "baseColorTexture": {
          "index": 5
        },
        "metallicFactor": 0.1,
        "roughnessFactor": 0.9
      },
      "name": "[Plastic Red]4"
    },
    {
      "pbrMetallicRoughness": {
        "baseColorFactor": [
          0.2176,
          0.2176,
          0.2176,
          1.0
        ],
        "metallicFactor": 0.1,
        "roughnessFactor": 0.9
      },
      "name": "default material",
      "doubleSided": true
    }
  ],
  "images": [
    {
      "bufferView": 0,
      "mimeType": "image/jpeg"
    },
    {
      "bufferView": 1,
      "mimeType": "image/jpeg"
    },
    {
      "bufferView": 2,
      "mimeType": "image/jpeg"
    },
    {
      "bufferView": 3,
      "mimeType": "image/jpeg"
    },
    {
      "bufferView": 4,
      "mimeType": "image/jpeg"
    },
    {
      "bufferView": 5,
      "mimeType": "image/jpeg"
    }
  ],
  "textures": [
    {
      "source": 0,
      "sampler": 0
    },
    {
      "source": 1,
      "sampler": 0
    },
    {
      "source": 2,
      "sampler": 0
    },
    {
      "source": 3,
      "sampler": 0
    },
    {
      "source": 4,
      "sampler": 0
    },
    {
      "source": 5,
      "sampler": 0
    }
  ],
  "meshes": [
    {
      "primitives": [
        {
          "attributes": {
            "POSITION": 2,
            "NORMAL": 3,
            "TEXCOORD_0": 4
          },
          "indices": 5,
          "mode": 4,
          "material": 0
        },
        {
          "attributes": {
            "POSITION": 2,
            "NORMAL": 3,
            "TEXCOORD_0": 4
          },
          "indices": 6,
          "mode": 4,
          "material": 1
        },
        {
          "attributes": {
            "POSITION": 2,
            "NORMAL": 3,
            "TEXCOORD_0": 4
          },
          "indices": 7,
          "mode": 4,
          "material": 2
        },
        {
          "attributes": {
            "POSITION": 2,
            "NORMAL": 3,
            "TEXCOORD_0": 4
          },
          "indices": 8,
          "mode": 4,
          "material": 3
        },
        {
          "attributes": {
            "POSITION": 2,
            "NORMAL": 3,
            "TEXCOORD_0": 4
          },
          "indices": 9,
          "mode": 4,
          "material": 4
        },
        {
          "attributes": {
            "POSITION": 2,
            "NORMAL": 3,
            "TEXCOORD_0": 4
          },
          "indices": 10,
          "mode": 4,
          "material": 5
        },
        {
          "attributes": {
            "POSITION": 0,
            "NORMAL": 1
          },
          "indices": 11,
          "mode": 4,
          "material": 6
        }
      ]
    }
  ],
  "accessors": [
    {
      "bufferView": 6,
      "componentType": 5126,
      "count": 14,
      "type": "VEC3",
      "min": [
        -0.21519999999999997,
        0.06451710201423859,
        -0.01946225665999987
      ],
      "max": [
        0.17907896284108105,
        0.2701016590555314,
        -4.1079315518671454e-17
      ]
    },
    {
      "bufferView": 7,
      "componentType": 5126,
      "count": 14,
      "type": "VEC3",
      "min": [
        -0.5366816295921513,
        -1.1011588474133484e-13,
        -1.0
      ],
      "max": [
        0.005784880476189929,
        0.8437848235529677,
        0.9999325598151547
      ]
    },
    {
      "bufferView": 8,
      "componentType": 5126,
      "count": 264,
      "type": "VEC3",
      "min": [
        -0.21519999999999997,
        -1.1917195161425648e-18,
        -0.01946225665999988
      ],
      "max": [
        0.21333179456824206,
        0.4150014962228607,
        4.949849255278663e-17
      ]
    },
    {
      "bufferView": 9,
      "componentType": 5126,
      "count": 264,
      "type": "VEC3",
      "min": [
        -1.0,
        -0.8800235320699501,
        -1.0
      ],
      "max": [
        1.0,
        0.8665279198340162,
        1.0
      ]
    },
    {
      "bufferView": 10,
      "componentType": 5126,
      "count": 264,
      "type": "VEC2",
      "min": [
        -0.7778171478565167,
        -0.3615534652980994
      ],
      "max": [
        0.7778171478565167,
        1.5311485401836968
      ]
    },
    {
      "bufferView": 12,
      "componentType": 5123,
      "count": 183,
      "type": "SCALAR"
    },
    {
      "bufferView": 12,
      "componentType": 5123,
      "count": 105,
      "type": "SCALAR",
      "byteOffset": 366
    },
    {
      "bufferView": 12,
      "componentType": 5123,
      "count": 63,
      "type": "SCALAR",
      "byteOffset": 576
    },
    {
      "bufferView": 12,
      "componentType": 5123,
      "count": 60,
      "type": "SCALAR",
      "byteOffset": 702
    },
    {
      "bufferView": 12,
      "componentType": 5123,
      "count": 66,
      "type": "SCALAR",
      "byteOffset": 822
    },
    {
      "bufferView": 12,
      "componentType": 5123,
      "count": 54,
      "type": "SCALAR",
      "byteOffset": 954
    },
    {
      "bufferView": 11,
      "componentType": 5121,
      "count": 21,
      "type": "SCALAR"
    }
  ],
  "bufferViews": [
    {
      "buffer": 0,
      "byteLength": 3352
    },
    {
      "buffer": 0,
      "byteOffset": 3352,
      "byteLength": 3536
    },
    {
      "buffer": 0,
      "byteOffset": 6888,
      "byteLength": 3503
    },
    {
      "buffer": 0,
      "byteOffset": 10391,
      "byteLength": 3894
    },
    {
      "buffer": 0,
      "byteOffset": 14285,
      "byteLength": 3921
    },
    {
      "buffer": 0,
      "byteOffset": 18206,
      "byteLength": 3896
    },
    {
      "buffer": 0,
      "byteOffset": 22104,
      "byteLength": 168,
      "target": 34962,
      "byteStride": 12
    },
    {
      "buffer": 0,
      "byteOffset": 22272,
      "byteLength": 168,
      "target": 34962,
      "byteStride": 12
    },
    {
      "buffer": 0,
      "byteOffset": 22440,
      "byteLength": 3168,
      "target": 34962,
      "byteStride": 12
    },
    {
      "buffer": 0,
      "byteOffset": 25608,
      "byteLength": 3168,
      "target": 34962,
      "byteStride": 12
    },
    {
      "buffer": 0,
      "byteOffset": 28776,
      "byteLength": 2112,
      "target": 34962,
      "byteStride": 8
    },
    {
      "buffer": 0,
      "byteOffset": 30888,
      "byteLength": 21,
      "target": 34963
    },
    {
      "buffer": 0,
      "byteOffset": 30910,
      "byteLength": 1062,
      "target": 34963
    }
  ],
  "buffers": [
    {
      "uri": "data:application/octet-stream;base64,",
      "byteLength": 31972
    }
  ]
}