{
  "asset": {
    "version": "2.0",
    "generator": "Sketchup glTF Exporter v1.2.6 by Centaur"
  },
  "scene": 0,
  "scenes": [
    {
      "nodes": [
        0
      ]
    }
  ],
  "samplers": [
    {
    }
  ],
  "nodes": [
    {
      "name": "root",
      "mesh": 0
    }
  ],
  "materials": [
    {
      "pbrMetallicRoughness": {
        "baseColorFactor": [
          0.0478,
          0.7519,
          0.6388,
          1.0
        ],
        "metallicFactor": 0.1,
        "roughnessFactor": 0.9
      },
      "name": "0085_Бирюзовый",
      "doubleSided": true
    },
    {
      "pbrMetallicRoughness": {
        "baseColorFactor": [
          0.0,
          0.1193,
          0.344,
          1.0
        ],
        "metallicFactor": 0.1,
        "roughnessFactor": 0.9
      },
      "name": "0087_Голубой",
      "doubleSided": true
    },
    {
      "pbrMetallicRoughness": {
        "baseColorTexture": {
          "index": 0
        },
        "metallicFactor": 0.1,
        "roughnessFactor": 0.9
      },
      "name": "vertika",
      "doubleSided": true
    },
    {
      "pbrMetallicRoughness": {
        "baseColorFactor": [
          0.9658,
          0.0446,
          1.0,
          1.0
        ],
        "metallicFactor": 0.1,
        "roughnessFactor": 0.9
      },
      "name": "Материал88",
      "doubleSided": true
    },
    {
      "pbrMetallicRoughness": {
        "baseColorFactor": [
          0.0,
          0.2632,
          0.2632,
          1.0
        ],
        "metallicFactor": 0.1,
        "roughnessFactor": 0.9
      },
      "name": "Материал74",
      "doubleSided": true
    },
    {
      "pbrMetallicRoughness": {
        "baseColorFactor": [
          0.0,
          0.4098,
          0.5234,
          1.0
        ],
        "metallicFactor": 0.1,
        "roughnessFactor": 0.9
      },
      "name": "0079_Зеленовато-бирюзовый",
      "doubleSided": true
    },
    {
      "pbrMetallicRoughness": {
        "baseColorFactor": [
          0.0231,
          0.0303,
          0.2349,
          1.0
        ],
        "metallicFactor": 0.1,
        "roughnessFactor": 0.9
      },
      "name": "[0074_SeaGreen]1",
      "doubleSided": true
    },
    {
      "pbrMetallicRoughness": {
        "baseColorFactor": [
          0.0,
          0.1768,
          0.1734,
          1.0
        ],
        "metallicFactor": 0.1,
        "roughnessFactor": 0.9
      },
      "name": "0078_Темный синевато-серый",
      "doubleSided": true
    },
    {
      "pbrMetallicRoughness": {
        "baseColorFactor": [
          0.0,
          0.5356,
          0.5356,
          1.0
        ],
        "metallicFactor": 0.1,
        "roughnessFactor": 0.9
      },
      "name": "Материал72",
      "doubleSided": true
    },
    {
      "pbrMetallicRoughness": {
        "baseColorFactor": [
          0.0939,
          0.4591,
          0.4704,
          1.0
        ],
        "metallicFactor": 0.1,
        "roughnessFactor": 0.9
      },
      "name": "Материал76",
      "doubleSided": true
    },
    {
      "pbrMetallicRoughness": {
        "baseColorFactor": [
          0.0,
          0.4151,
          0.4151,
          1.0
        ],
        "metallicFactor": 0.1,
        "roughnessFactor": 0.9
      },
      "name": "Материал73",
      "doubleSided": true
    },
    {
      "pbrMetallicRoughness": {
        "baseColorFactor": [
          0.4368,
          0.7083,
          0.7445,
          1.0
        ],
        "metallicFactor": 0.1,
        "roughnessFactor": 0.9
      },
      "name": "Материал78",
      "doubleSided": true
    },
    {
      "pbrMetallicRoughness": {
        "baseColorFactor": [
          0.0356,
          0.0078,
          0.187,
          1.0
        ],
        "metallicFactor": 0.1,
        "roughnessFactor": 0.9
      },
      "name": "0074_Морской волны",
      "doubleSided": true
    },
    {
      "pbrMetallicRoughness": {
        "baseColorFactor": [
          0.021,
          0.3537,
          0.3587,
          1.0
        ],
        "metallicFactor": 0.1,
        "roughnessFactor": 0.9
      },
      "name": "Материал75",
      "doubleSided": true
    },
    {
      "pbrMetallicRoughness": {
        "baseColorFactor": [
          1.0,
          0.9574,
          0.9574,
          1.0
        ],
        "metallicFactor": 0.1,
        "roughnessFactor": 0.9
      },
      "name": "0010_Снежно-белый",
      "doubleSided": true
    },
    {
      "pbrMetallicRoughness": {
        "baseColorFactor": [
          0.0478,
          0.139,
          0.3993,
          1.0
        ],
        "metallicFactor": 0.1,
        "roughnessFactor": 0.9
      },
      "name": "Материал85",
      "doubleSided": true
    },
    {
      "pbrMetallicRoughness": {
        "baseColorFactor": [
          0.0,
          0.673,
          0.673,
          1.0
        ],
        "metallicFactor": 0.1,
        "roughnessFactor": 0.9
      },
      "name": "Материал71",
      "doubleSided": true
    },
    {
      "pbrMetallicRoughness": {
        "baseColorFactor": [
          0.2176,
          0.2176,
          0.2176,
          1.0
        ],
        "metallicFactor": 0.1,
        "roughnessFactor": 0.9
      },
      "name": "default material",
      "doubleSided": true
    }
  ],
  "images": [
    {
      "bufferView": 0,
      "mimeType": "image/png"
    }
  ],
  "textures": [
    {
      "source": 0,
      "sampler": 0
    }
  ],
  "meshes": [
    {
      "primitives": [
        {
          "attributes": {
            "POSITION": 0,
            "NORMAL": 1
          },
          "indices": 5,
          "mode": 4,
          "material": 0
        },
        {
          "attributes": {
            "POSITION": 0,
            "NORMAL": 1
          },
          "indices": 6,
          "mode": 4,
          "material": 1
        },
        {
          "attributes": {
            "POSITION": 2,
            "NORMAL": 3,
            "TEXCOORD_0": 4
          },
          "indices": 7,
          "mode": 4,
          "material": 2
        },
        {
          "attributes": {
            "POSITION": 0,
            "NORMAL": 1
          },
          "indices": 8,
          "mode": 4,
          "material": 3
        },
        {
          "attributes": {
            "POSITION": 0,
            "NORMAL": 1
          },
          "indices": 9,
          "mode": 4,
          "material": 4
        },
        {
          "attributes": {
            "POSITION": 0,
            "NORMAL": 1
          },
          "indices": 10,
          "mode": 4,
          "material": 5
        },
        {
          "attributes": {
            "POSITION": 0,
            "NORMAL": 1
          },
          "indices": 11,
          "mode": 4,
          "material": 6
        },
        {
          "attributes": {
            "POSITION": 0,
            "NORMAL": 1
          },
          "indices": 12,
          "mode": 4,
          "material": 7
        },
        {
          "attributes": {
            "POSITION": 0,
            "NORMAL": 1
          },
          "indices": 13,
          "mode": 4,
          "material": 8
        },
        {
          "attributes": {
            "POSITION": 0,
            "NORMAL": 1
          },
          "indices": 14,
          "mode": 4,
          "material": 9
        },
        {
          "attributes": {
            "POSITION": 0,
            "NORMAL": 1
          },
          "indices": 15,
          "mode": 4,
          "material": 10
        },
        {
          "attributes": {
            "POSITION": 0,
            "NORMAL": 1
          },
          "indices": 16,
          "mode": 4,
          "material": 11
        },
        {
          "attributes": {
            "POSITION": 0,
            "NORMAL": 1
          },
          "indices": 17,
          "mode": 4,
          "material": 12
        },
        {
          "attributes": {
            "POSITION": 0,
            "NORMAL": 1
          },
          "indices": 18,
          "mode": 4,
          "material": 13
        },
        {
          "attributes": {
            "POSITION": 0,
            "NORMAL": 1
          },
          "indices": 19,
          "mode": 4,
          "material": 14
        },
        {
          "attributes": {
            "POSITION": 0,
            "NORMAL": 1
          },
          "indices": 20,
          "mode": 4,
          "material": 15
        },
        {
          "attributes": {
            "POSITION": 0,
            "NORMAL": 1
          },
          "indices": 21,
          "mode": 4,
          "material": 16
        },
        {
          "attributes": {
            "POSITION": 0,
            "NORMAL": 1
          },
          "indices": 22,
          "mode": 4,
          "material": 17
        }
      ]
    }
  ],
  "accessors": [
    {
      "bufferView": 1,
      "componentType": 5126,
      "count": 322,
      "type": "VEC3",
      "min": [
        -0.13100235931008886,
        -0.08836316371226573,
        -0.10873059059648697
      ],
      "max": [
        0.1090079723708946,
        0.0822463653810194,
        0.1239932266725048
      ]
    },
    {
      "bufferView": 2,
      "componentType": 5126,
      "count": 322,
      "type": "VEC3",
      "min": [
        -1.0,
        -0.7071067811865492,
        -0.7071067811865459
      ],
      "max": [
        1.0,
        0.707106781186772,
        0.707106781186578
      ]
    },
    {
      "bufferView": 3,
      "componentType": 5126,
      "count": 12,
      "type": "VEC3",
      "min": [
        -0.10737320496747672,
        -0.07827831135546426,
        -0.08698833925783155
      ],
      "max": [
        0.0843709369467786,
        0.06043760121422664,
        0.05179408613999604
      ]
    },
    {
      "bufferView": 4,
      "componentType": 5126,
      "count": 12,
      "type": "VEC3",
      "min": [
        0.49302774387559084,
        -0.6183694068074815,
        2.4492935982947064e-16
      ],
      "max": [
        1.0,
        7.49879891330929e-33,
        0.6151925079879252
      ]
    },
    {
      "bufferView": 5,
      "componentType": 5126,
      "count": 12,
      "type": "VEC2",
      "min": [
        -0.0030157037193150127,
        0.7405268952361079
      ],
      "max": [
        0.18044728304163254,
        1.0061185856529118
      ]
    },
    {
      "bufferView": 6,
      "componentType": 5123,
      "count": 129,
      "type": "SCALAR"
    },
    {
      "bufferView": 6,
      "componentType": 5123,
      "count": 45,
      "type": "SCALAR",
      "byteOffset": 258
    },
    {
      "bufferView": 7,
      "componentType": 5121,
      "count": 18,
      "type": "SCALAR"
    },
    {
      "bufferView": 6,
      "componentType": 5123,
      "count": 12,
      "type": "SCALAR",
      "byteOffset": 348
    },
    {
      "bufferView": 6,
      "componentType": 5123,
      "count": 54,
      "type": "SCALAR",
      "byteOffset": 372
    },
    {
      "bufferView": 6,
      "componentType": 5123,
      "count": 63,
      "type": "SCALAR",
      "byteOffset": 480
    },
    {
      "bufferView": 6,
      "componentType": 5123,
      "count": 54,
      "type": "SCALAR",
      "byteOffset": 606
    },
    {
      "bufferView": 6,
      "componentType": 5123,
      "count": 33,
      "type": "SCALAR",
      "byteOffset": 714
    },
    {
      "bufferView": 6,
      "componentType": 5123,
      "count": 3,
      "type": "SCALAR",
      "byteOffset": 780
    },
    {
      "bufferView": 6,
      "componentType": 5123,
      "count": 15,
      "type": "SCALAR",
      "byteOffset": 786
    },
    {
      "bufferView": 6,
      "componentType": 5123,
      "count": 6,
      "type": "SCALAR",
      "byteOffset": 816
    },
    {
      "bufferView": 6,
      "componentType": 5123,
      "count": 6,
      "type": "SCALAR",
      "byteOffset": 828
    },
    {
      "bufferView": 6,
      "componentType": 5123,
      "count": 30,
      "type": "SCALAR",
      "byteOffset": 840
    },
    {
      "bufferView": 6,
      "componentType": 5123,
      "count": 3,
      "type": "SCALAR",
      "byteOffset": 900
    },
    {
      "bufferView": 6,
      "componentType": 5123,
      "count": 57,
      "type": "SCALAR",
      "byteOffset": 906
    },
    {
      "bufferView": 6,
      "componentType": 5123,
      "count": 48,
      "type": "SCALAR",
      "byteOffset": 1020
    },
    {
      "bufferView": 6,
      "componentType": 5123,
      "count": 6,
      "type": "SCALAR",
      "byteOffset": 1116
    },
    {
      "bufferView": 6,
      "componentType": 5123,
      "count": 12,
      "type": "SCALAR",
      "byteOffset": 1128
    }
  ],
  "bufferViews": [
    {
      "buffer": 0,
      "byteLength": 126608
    },
    {
      "buffer": 0,
      "byteOffset": 126612,
      "byteLength": 3864,
      "target": 34962,
      "byteStride": 12
    },
    {
      "buffer": 0,
      "byteOffset": 130476,
      "byteLength": 3864,
      "target": 34962,
      "byteStride": 12
    },
    {
      "buffer": 0,
      "byteOffset": 134340,
      "byteLength": 144,
      "target": 34962,
      "byteStride": 12
    },
    {
      "buffer": 0,
      "byteOffset": 134484,
      "byteLength": 144,
      "target": 34962,
      "byteStride": 12
    },
    {
      "buffer": 0,
      "byteOffset": 134632,
      "byteLength": 96,
      "target": 34962,
      "byteStride": 8
    },
    {
      "buffer": 0,
      "byteOffset": 134728,
      "byteLength": 1152,
      "target": 34963
    },
    {
      "buffer": 0,
      "byteOffset": 135880,
      "byteLength": 18,
      "target": 34963
    }
  ],
  "buffers": [
    {
      "uri": "data:application/octet-stream;base64,",
      "byteLength": 135898
    }
  ]
}